<svg width="266" height="223" viewBox="0 0 266 223" fill="none" xmlns="http://www.w3.org/2000/svg">
<ellipse cx="141" cy="213" rx="125" ry="10" fill="#E5E2F1"/>
<path d="M197.941 60.438H214.579V84.3863H197.941V60.438Z" fill="#8C9EF3"/>
<path d="M196.423 57.7983H216.097V61.7545H196.423V57.7983Z" fill="#AEC2FD"/>
<path fill-rule="evenodd" clip-rule="evenodd" d="M183.992 55.5928H163.822L139.932 59.7799L113.058 55.5928H102.478L49.6746 100.837H175.461C175.461 113.903 183.992 61.655 183.992 55.5928Z" fill="#F7A12E"/>
<path d="M55.2356 100.837H139.929V209.249H55.2356V100.837Z" fill="#CFC8EC"/>
<path fill-rule="evenodd" clip-rule="evenodd" d="M235 100.837L183.992 55.5928L132.985 100.837H139.929H228.053H235Z" fill="#FFB75C"/>
<path fill-rule="evenodd" clip-rule="evenodd" d="M139.929 100.837V209.249H228.053V100.837L183.992 61.7544L139.929 100.837Z" fill="#D6D1E9"/>
<path d="M169.567 160.404H198.418V209.232H169.567V160.404Z" fill="white"/>
<path d="M171.562 162.286H196.423V209.232H171.562V162.286Z" fill="#024BC8"/>
<path d="M169.567 113.498H198.418V148.87H169.567V113.498Z" fill="white"/>
<path d="M171.562 115.492H196.423V146.876H171.562V115.492Z" fill="#8C9EF3"/>
<path fill-rule="evenodd" clip-rule="evenodd" d="M183.545 136.078L171.562 123.648V126.345L183.545 138.775V136.078Z" fill="#A5C4FF"/>
<path fill-rule="evenodd" clip-rule="evenodd" d="M183.545 141.072L171.562 128.643V133.6L183.545 146.029V141.072Z" fill="#A5C4FF"/>
<path d="M171.562 161.871H196.423V209.231H171.562V161.871Z" fill="#D8E4FB"/>
<path fill-rule="evenodd" clip-rule="evenodd" d="M173.814 187.69V209.249H194.235V187.69V164.086H173.814V187.69Z" fill="#F7A12E"/>
<path fill-rule="evenodd" clip-rule="evenodd" d="M196.423 136.078L184.44 123.648V126.345L196.423 138.775V136.078Z" fill="#A5C4FF"/>
<path fill-rule="evenodd" clip-rule="evenodd" d="M196.423 141.072L184.44 128.643V133.6L196.423 146.029V141.072Z" fill="#A5C4FF"/>
<path d="M114.658 113.498H130.63V148.87H114.658V113.498Z" fill="white"/>
<path d="M116.652 115.492H128.636V146.876H116.652V115.492Z" fill="#8C9EF3"/>
<path fill-rule="evenodd" clip-rule="evenodd" d="M128.636 131.061L116.652 118.631V121.328L128.636 133.756V131.061Z" fill="#A5C4FF"/>
<path fill-rule="evenodd" clip-rule="evenodd" d="M128.636 136.053L116.652 123.624V128.581L128.636 141.01V136.053Z" fill="#A5C4FF"/>
<path d="M100.68 113.498H116.652V148.87H100.68V113.498Z" fill="white"/>
<path d="M102.674 115.492H114.658V146.876H102.674V115.492Z" fill="#8C9EF3"/>
<path fill-rule="evenodd" clip-rule="evenodd" d="M114.658 131.061L102.674 118.631V121.328L114.658 133.756V131.061Z" fill="#A5C4FF"/>
<path fill-rule="evenodd" clip-rule="evenodd" d="M114.658 136.053L102.674 123.624V128.581L114.658 141.01V136.053Z" fill="#A5C4FF"/>
<path d="M114.658 160.404H130.63V195.776H114.658V160.404Z" fill="white"/>
<path d="M116.652 162.398H128.636V193.782H116.652V162.398Z" fill="#8C9EF3"/>
<path fill-rule="evenodd" clip-rule="evenodd" d="M128.636 177.967L116.652 165.537V168.234L128.636 180.664V177.967Z" fill="#A5C4FF"/>
<path fill-rule="evenodd" clip-rule="evenodd" d="M128.636 182.959L116.652 170.529V175.486L128.636 187.916V182.959Z" fill="#A5C4FF"/>
<path d="M100.68 160.404H116.652V195.776H100.68V160.404Z" fill="white"/>
<path d="M102.674 162.398H114.658V193.782H102.674V162.398Z" fill="#8C9EF3"/>
<path fill-rule="evenodd" clip-rule="evenodd" d="M114.658 177.967L102.674 165.537V168.234L114.658 180.664V177.967Z" fill="#A5C4FF"/>
<path fill-rule="evenodd" clip-rule="evenodd" d="M114.658 182.959L102.674 170.529V175.486L114.658 187.916V182.959Z" fill="#A5C4FF"/>
<path d="M76.5556 113.498H92.5282V148.87H76.5556V113.498Z" fill="white"/>
<path d="M78.55 115.492H90.5338V146.876H78.55V115.492Z" fill="#8C9EF3"/>
<path fill-rule="evenodd" clip-rule="evenodd" d="M90.5338 131.061L78.55 118.631V121.328L90.5338 133.756V131.061Z" fill="#A5C4FF"/>
<path fill-rule="evenodd" clip-rule="evenodd" d="M90.5338 136.053L78.55 123.624V128.581L90.5338 141.01V136.053Z" fill="#A5C4FF"/>
<path d="M62.5774 113.498H78.55V148.87H62.5774V113.498Z" fill="white"/>
<path d="M64.5718 115.492H76.5556V146.876H64.5718V115.492Z" fill="#8C9EF3"/>
<path fill-rule="evenodd" clip-rule="evenodd" d="M76.5556 131.061L64.5718 118.631V121.328L76.5556 133.756V131.061Z" fill="#A5C4FF"/>
<path fill-rule="evenodd" clip-rule="evenodd" d="M76.5556 136.053L64.5718 123.624V128.581L76.5556 141.01V136.053Z" fill="#A5C4FF"/>
<path d="M76.5556 160.404H92.5282V195.776H76.5556V160.404Z" fill="white"/>
<path d="M78.55 162.398H90.5338V193.782H78.55V162.398Z" fill="#8C9EF3"/>
<path fill-rule="evenodd" clip-rule="evenodd" d="M90.5338 177.967L78.55 165.537V168.234L90.5338 180.664V177.967Z" fill="#A5C4FF"/>
<path fill-rule="evenodd" clip-rule="evenodd" d="M90.5338 182.959L78.55 170.529V175.486L90.5338 187.916V182.959Z" fill="#A5C4FF"/>
<path d="M62.5774 160.404H78.55V195.776H62.5774V160.404Z" fill="white"/>
<path d="M64.5718 162.398H76.5556V193.782H64.5718V162.398Z" fill="#8C9EF3"/>
<path fill-rule="evenodd" clip-rule="evenodd" d="M76.5556 177.967L64.5718 165.537V168.234L76.5556 180.664V177.967Z" fill="#A5C4FF"/>
<path fill-rule="evenodd" clip-rule="evenodd" d="M76.5556 182.959L64.5718 170.529V175.486L76.5556 187.916V182.959Z" fill="#A5C4FF"/>
<path d="M182.994 114.911H184.988V147.244H182.994V114.911Z" fill="white"/>
<path d="M50.0695 209.249H232.482V214.148H50.0695V209.249Z" fill="#8075A7"/>
<path d="M130.63 113.498H131.728V148.87H130.63V113.498Z" fill="#8C9EF3"/>
<path d="M92.5307 113.498H93.6284V148.87H92.5307V113.498Z" fill="#8C9EF3"/>
<path d="M130.63 160.404H131.728V195.776H130.63V160.404Z" fill="#8C9EF3"/>
<path d="M92.5307 160.404H93.6284V195.776H92.5307V160.404Z" fill="#8C9EF3"/>
<path d="M168.469 160.404H169.567V209.232H168.469V160.404Z" fill="#8C9EF3"/>
<path d="M168.469 113.498H169.567V148.87H168.469V113.498Z" fill="#8C9EF3"/>
<path d="M48.475 209.249H134.773V213.451H48.475V209.249Z" fill="#9C91C0"/>
<path fill-rule="evenodd" clip-rule="evenodd" d="M52.6526 123.087C53.9093 122.282 60.8537 118.14 62.0707 117.268C89.7961 97.4694 107.316 60.8727 104.586 26.9731L103.913 18.6162L95.6328 17.3123C81.1032 15.025 70.4258 10.6392 57.6597 3.44204L52.4315 0.494141L47.2033 3.44204C34.3701 10.6789 23.7225 14.8959 9.13585 17.3272L0.944649 18.6931L0.279022 26.9706C-2.56977 62.3603 16.6465 100.688 46.5079 119.776L52.6575 123.084L52.6526 123.087Z" fill="#8777D9"/>
<path fill-rule="evenodd" clip-rule="evenodd" d="M52.4315 0L47.2033 2.9479C34.3701 10.1848 23.7225 14.4018 9.13584 16.8331L0.944641 18.199L0.279015 26.4765C-2.56978 61.8662 16.6465 100.194 46.5079 119.282L52.434 122.471V0H52.4315Z" fill="#A7B4F9"/>
<path fill-rule="evenodd" clip-rule="evenodd" d="M90.0072 30.8005C90.6132 42.6617 88.2686 54.6395 83.8526 65.6314C77.559 81.3047 66.5687 96.0716 52.429 105.544C38.2894 96.0716 27.3015 81.3023 21.0054 65.6314C16.5894 54.6346 14.2448 42.6517 14.8533 30.7831C21.3357 29.606 27.6468 27.9942 33.8535 25.7069C40.3036 23.3302 46.4284 20.3127 52.429 16.9849C58.7276 20.4816 65.1679 23.6431 71.9607 26.0893C77.8595 28.2127 83.8527 29.7276 90.0047 30.8005" fill="#ECF5FF"/>
<path fill-rule="evenodd" clip-rule="evenodd" d="M90.0072 30.8005C90.6132 42.6617 88.2686 54.6395 83.8526 65.6314C77.559 81.3047 66.5687 96.0716 52.429 105.544V16.9849C58.7276 20.4816 65.1679 23.6431 71.9607 26.0893C77.8595 28.2127 83.8527 29.7276 90.0047 30.8005" fill="#ECF5FF"/>
<path fill-rule="evenodd" clip-rule="evenodd" d="M52.4315 20.9707V101.287C39.8268 92.1922 30.0013 78.6398 24.2541 64.3299C20.3646 54.6418 18.1392 44.1541 18.2634 33.6886C23.9734 32.5313 29.589 31.0065 35.068 28.9874C41.0662 26.7771 46.8233 24.0155 52.434 20.9732" fill="#DDEEFF"/>
<path fill-rule="evenodd" clip-rule="evenodd" d="M52.3917 35.7969C64.3209 35.7969 73.9924 45.4676 73.9924 57.3958C73.9924 69.324 64.3209 78.9947 52.3917 78.9947C40.4626 78.9947 30.7911 69.324 30.7911 57.3958C30.7911 45.4676 40.4626 35.7969 52.3917 35.7969Z" fill="#3EC0C8"/>
<path fill-rule="evenodd" clip-rule="evenodd" d="M48.5967 61.1138L59.972 50.5565C61.1293 49.4836 62.9424 49.5482 64.0179 50.703C65.0933 51.8578 65.0287 53.6757 63.8713 54.7511L50.3154 67.3324L50.2731 67.3672C49.0884 68.4028 47.2729 68.2811 46.2372 67.099L40.629 60.7065C39.5908 59.5244 39.7125 57.704 40.8972 56.6683C42.0795 55.6327 43.8975 55.7544 44.9332 56.9366L48.5967 61.1138Z" fill="white"/>
<path fill-rule="evenodd" clip-rule="evenodd" d="M163.82 55.5928L144.758 60.4381L147.592 61.794L151.014 60.7162L156.714 62.9588L150.565 62.0498L148.14 64.1484L143.397 63.3338L137.875 64.963L138.027 66.684L141.564 66.2544L143.625 66.0036L144.137 67.5011L144.797 69.9871L142.5 67.362L136.758 70.0417L134.224 67.8413L129.639 68.1195L131.728 71.2785L122.643 72.411L113.903 73.0269L118.719 77.3556L108.665 82.8963L113.255 76.5758L110.033 72.185L118.259 69.17L115.78 66.5226L112.768 63.3065L109.099 63.9L107.671 60.5995L110.525 62.4497L113.674 61.7543L118.791 64.1707L122.643 61.7543L113.058 55.5928L132.985 57.0605L137.734 59.4372L146.561 57.3461L163.82 55.5928Z" fill="#2A4589"/>
<path fill-rule="evenodd" clip-rule="evenodd" d="M139.929 26.5483C139.403 26.5483 138.971 26.9805 138.971 27.507V42.0006C138.971 42.5271 139.403 42.9592 139.929 42.9592C140.456 42.9592 140.888 42.5271 140.888 42.0006V27.507C140.888 26.9805 140.456 26.5483 139.929 26.5483Z" fill="#7BA9E3"/>
<path fill-rule="evenodd" clip-rule="evenodd" d="M158.845 31.6517C158.388 31.3885 157.799 31.5449 157.536 32.0019L150.289 44.5534C150.026 45.0104 150.182 45.599 150.639 45.8622C151.096 46.1255 151.685 45.969 151.948 45.5121L159.195 32.9605C159.459 32.5035 159.302 31.915 158.845 31.6517Z" fill="#7BA9E3"/>
<path fill-rule="evenodd" clip-rule="evenodd" d="M121.016 31.6517C121.473 31.3885 122.062 31.5449 122.325 32.0019L129.572 44.5534C129.836 45.0104 129.679 45.599 129.222 45.8622C128.765 46.1255 128.177 45.969 127.913 45.5121L120.666 32.9605C120.403 32.5035 120.559 31.915 121.016 31.6517Z" fill="#7BA9E3"/>
</svg>
